<svg width="25" height="25" viewBox="0 0 25 25" fill="none" xmlns="http://www.w3.org/2000/svg">
<g clip-path="url(#clip0_217_94)">
<mask id="mask0_217_94" style="mask-type:luminance" maskUnits="userSpaceOnUse" x="0" y="0" width="25" height="25">
<path d="M25 0H0V25H25V0Z" fill="white"/>
</mask>
<g mask="url(#mask0_217_94)">
<path fill-rule="evenodd" clip-rule="evenodd" d="M25 12.5C25 19.4036 19.4036 25 12.5 25C5.59644 25 0 19.4036 0 12.5C0 5.59644 5.59644 0 12.5 0C19.4036 0 25 5.59644 25 12.5ZM12.9371 9.2215C11.7194 9.7315 9.2943 10.7827 5.6515 12.3647C5.06866 12.6041 4.75641 12.8331 4.72519 13.062C4.67909 13.4492 5.16372 13.5996 5.81747 13.8025C5.90183 13.8287 5.98902 13.8557 6.07822 13.8843C6.72352 14.0924 7.57698 14.3318 8.02452 14.3422C8.43044 14.3526 8.87797 14.1861 9.37756 13.8427C12.781 11.5425 14.5295 10.3768 14.644 10.356C14.7273 10.3352 14.8313 10.3143 14.9042 10.3768C14.9771 10.4392 14.9771 10.5641 14.9667 10.5954C14.917 10.8022 12.8866 12.6872 11.9626 13.545C11.7246 13.766 11.56 13.9188 11.5216 13.9571C11.424 14.0576 11.3246 14.1528 11.229 14.2442C10.6316 14.8161 10.1833 15.2452 11.251 15.945C11.7364 16.2655 12.1279 16.5327 12.5134 16.7956C12.9794 17.1136 13.4366 17.4255 14.0403 17.8184C14.1826 17.9119 14.3187 18.0087 14.4516 18.1033C14.9701 18.4722 15.4379 18.805 16.0178 18.7552C16.3509 18.7241 16.6944 18.4117 16.8713 17.475C17.2877 15.2685 18.0995 10.4705 18.2869 8.49294C18.3077 8.32641 18.2869 8.10784 18.2659 8.00377C18.2452 7.89969 18.2139 7.76437 18.0891 7.6603C17.933 7.53541 17.7039 7.51459 17.5998 7.51459C17.1316 7.525 16.403 7.7748 12.9371 9.2215Z" fill="black"/>
</g>
</g>
<defs>
<clipPath id="clip0_217_94">
<path d="M0 0H25V12.5C25 19.4036 19.4036 25 12.5 25C5.59644 25 0 19.4036 0 12.5V0Z" fill="white"/>
</clipPath>
</defs>
</svg>
